  0
SECTION
  2
HEADER
  9
$ACADVER
  1
AC1014
  9
$HANDSEED
  5
FFFF
  9
$MEASUREMENT
 70
     1
  0
ENDSEC
  0
SECTION
  2
TABLES
  0
TABLE
  2
VPORT
  5
8
330
0
100
AcDbSymbolTable
 70
     4
  0
VPORT
  5
2E
330
8
100
AcDbSymbolTableRecord
100
AcDbViewportTableRecord
  2
*ACTIVE
 70
     0
 10
0.0
 20
0.0
 11
1.0
 21
1.0
 12
210.0
 22
148.5
 13
0.0
 23
0.0
 14
10.0
 24
10.0
 15
10.0
 25
10.0
 16
0.0
 26
0.0
 36
1.0
 17
0.0
 27
0.0
 37
0.0
 40
341.0
 41
1.24
 42
50.0
 43
0.0
 44
0.0
 50
0.0
 51
0.0
 71
     0
 72
   100
 73
     1
 74
     3
 75
     0
 76
     0
 77
     0
 78
     0
  0
ENDTAB
  0
TABLE
  2
LTYPE
  5
5
330
0
100
AcDbSymbolTable
 70
     1
  0
LTYPE
  5
14
330
5
100
AcDbSymbolTableRecord
100
AcDbLinetypeTableRecord
  2
BYBLOCK
 70
     0
  3

 72
    65
 73
     0
 40
0.0
  0
LTYPE
  5
15
330
5
100
AcDbSymbolTableRecord
100
AcDbLinetypeTableRecord
  2
BYLAYER
 70
     0
  3

 72
    65
 73
     0
 40
0.0
  0
LTYPE
  5
16
330
5
100
AcDbSymbolTableRecord
100
AcDbLinetypeTableRecord
  2
CONTINUOUS
 70
     0
  3
Solid line
 72
    65
 73
     0
 40
0.0
  0
ENDTAB
  0
TABLE
  2
LAYER
  5
2
100
AcDbSymbolTable
 70
1
  0
LAYER
  5
50
100
AcDbSymbolTableRecord
100
AcDbLayerTableRecord
  2
0
 70
0
  6
CONTINUOUS
  0
ENDTAB
  0
TABLE
  2
STYLE
  5
3
330
0
100
AcDbSymbolTable
 70
     1
  0
STYLE
  5
11
330
3
100
AcDbSymbolTableRecord
100
AcDbTextStyleTableRecord
  2
STANDARD
 70
     0
 40
0.0
 41
1.0
 50
0.0
 71
     0
 42
2.5
  3
txt
  4

  0
ENDTAB
  0
TABLE
  2
VIEW
  5
6
330
0
100
AcDbSymbolTable
 70
     0
  0
ENDTAB
  0
TABLE
  2
UCS
  5
7
330
0
100
AcDbSymbolTable
 70
     0
  0
ENDTAB
  0
TABLE
  2
APPID
  5
9
330
0
100
AcDbSymbolTable
 70
     2
  0
APPID
  5
12
330
9
100
AcDbSymbolTableRecord
100
AcDbRegAppTableRecord
  2
ACAD
 70
     0
  0
ENDTAB
  0
TABLE
  2
DIMSTYLE
  5
A
330
0
100
AcDbSymbolTable
 70
     1
  0
DIMSTYLE
105
27
330
A
100
AcDbSymbolTableRecord
100
AcDbDimStyleTableRecord
  2
ISO-25
 70
     0
  3

  4

  5

  6

  7

 40
1.0
 41
2.5
 42
0.625
 43
3.75
 44
1.25
 45
0.0
 46
0.0
 47
0.0
 48
0.0
140
2.5
141
2.5
142
0.0
143
0.03937007874016
144
1.0
145
0.0
146
1.0
147
0.625
 71
     0
 72
     0
 73
     0
 74
     0
 75
     0
 76
     0
 77
     1
 78
     8
170
     0
171
     3
172
     1
173
     0
174
     0
175
     0
176
     0
177
     0
178
     0
270
     2
271
     2
272
     2
273
     2
274
     3
340
11
275
     0
280
     0
281
     0
282
     0
283
     0
284
     8
285
     0
286
     0
287
     3
288
     0
  0
ENDTAB
  0
TABLE
  2
BLOCK_RECORD
  5
1
330
0
100
AcDbSymbolTable
 70
     1
  0
BLOCK_RECORD
  5
1F
330
1
100
AcDbSymbolTableRecord
100
AcDbBlockTableRecord
  2
*MODEL_SPACE
  0
BLOCK_RECORD
  5
1B
330
1
100
AcDbSymbolTableRecord
100
AcDbBlockTableRecord
  2
*PAPER_SPACE
  0
ENDTAB
  0
ENDSEC
  0
SECTION
  2
BLOCKS
  0
BLOCK
  5
20
330
1F
100
AcDbEntity
  8
0
100
AcDbBlockBegin
  2
*MODEL_SPACE
 70
     0
 10
0.0
 20
0.0
 30
0.0
  3
*MODEL_SPACE
  1

  0
ENDBLK
  5
21
330
1F
100
AcDbEntity
  8
0
100
AcDbBlockEnd
  0
BLOCK
  5
1C
330
1B
100
AcDbEntity
 67
     1
  8
0
100
AcDbBlockBegin
  2
*PAPER_SPACE
  1

  0
ENDBLK
  5
1D
330
1B
100
AcDbEntity
 67
     1
  8
0
100
AcDbBlockEnd
  0
ENDSEC
  0
SECTION
  2
ENTITIES
  0
SPLINE
  5
100
100
AcDbEntity
  8
0
 62
3
100
AcDbSpline
 70
8
 71
3
 72
8
 73
4
 74
0
 40
0
 40
0
 40
0
 40
0
 40
1
 40
1
 40
1
 40
1
 10
1.146082
 20
24.729399
 30
0.0
 10
1.709321
 20
18.798708
 30
0.0
 10
3.615391
 20
12.595529
 30
0.0
 10
8.103437
 20
8.105459
 30
0.0
  0
SPLINE
  5
101
100
AcDbEntity
  8
0
 62
3
100
AcDbSpline
 70
8
 71
3
 72
8
 73
4
 74
0
 40
0
 40
0
 40
0
 40
0
 40
1
 40
1
 40
1
 40
1
 10
8.103437
 20
8.105459
 30
0.0
 10
12.591479
 20
3.615380
 30
0.0
 10
18.794660
 20
1.709310
 30
0.0
 10
24.725346
 20
1.146070
 30
0.0
  0
SPLINE
  5
102
100
AcDbEntity
  8
0
 62
3
100
AcDbSpline
 70
8
 71
3
 72
8
 73
4
 74
0
 40
0
 40
0
 40
0
 40
0
 40
1
 40
1
 40
1
 40
1
 10
24.725346
 20
1.146070
 30
0.0
 10
30.656033
 20
0.582830
 30
0.0
 10
49.719250
 20
0.132280
 30
0.0
 10
61.298474
 20
0.132280
 30
0.0
  0
SPLINE
  5
103
100
AcDbEntity
  8
0
 62
3
100
AcDbSpline
 70
8
 71
3
 72
8
 73
4
 74
0
 40
0
 40
0
 40
0
 40
0
 40
1
 40
1
 40
1
 40
1
 10
61.298474
 20
0.132280
 30
0.0
 10
72.877703
 20
0.132280
 30
0.0
 10
91.940918
 20
0.582830
 30
0.0
 10
97.871603
 20
1.146070
 30
0.0
  0
SPLINE
  5
104
100
AcDbEntity
  8
0
 62
3
100
AcDbSpline
 70
8
 71
3
 72
8
 73
4
 74
0
 40
0
 40
0
 40
0
 40
0
 40
1
 40
1
 40
1
 40
1
 10
97.871603
 20
1.146070
 30
0.0
 10
103.802302
 20
1.709310
 30
0.0
 10
110.005481
 20
3.615380
 30
0.0
 10
114.495551
 20
8.103429
 30
0.0
  0
SPLINE
  5
105
100
AcDbEntity
  8
0
 62
3
100
AcDbSpline
 70
8
 71
3
 72
8
 73
4
 74
0
 40
0
 40
0
 40
0
 40
0
 40
1
 40
1
 40
1
 40
1
 10
114.495551
 20
8.103429
 30
0.0
 10
118.985630
 20
12.591469
 30
0.0
 10
120.891700
 20
18.794648
 30
0.0
 10
121.454940
 20
24.725335
 30
0.0
  0
SPLINE
  5
106
100
AcDbEntity
  8
0
 62
3
100
AcDbSpline
 70
8
 71
3
 72
8
 73
4
 74
0
 40
0
 40
0
 40
0
 40
0
 40
1
 40
1
 40
1
 40
1
 10
121.454940
 20
24.725335
 30
0.0
 10
122.018180
 20
30.656023
 30
0.0
 10
122.468730
 20
49.719240
 30
0.0
 10
122.468730
 20
61.302528
 30
0.0
  0
SPLINE
  5
107
100
AcDbEntity
  8
0
 62
3
100
AcDbSpline
 70
8
 71
3
 72
8
 73
4
 74
0
 40
0
 40
0
 40
0
 40
0
 40
1
 40
1
 40
1
 40
1
 10
122.468730
 20
61.302528
 30
0.0
 10
122.468730
 20
72.885816
 30
0.0
 10
122.018180
 20
91.949033
 30
0.0
 10
121.454940
 20
97.879718
 30
0.0
  0
SPLINE
  5
108
100
AcDbEntity
  8
0
 62
3
100
AcDbSpline
 70
8
 71
3
 72
8
 73
4
 74
0
 40
0
 40
0
 40
0
 40
0
 40
1
 40
1
 40
1
 40
1
 10
121.454940
 20
97.879718
 30
0.0
 10
120.891700
 20
103.810409
 30
0.0
 10
118.985630
 20
110.013588
 30
0.0
 10
114.495551
 20
114.501627
 30
0.0
  0
SPLINE
  5
109
100
AcDbEntity
  8
0
 62
3
100
AcDbSpline
 70
8
 71
3
 72
8
 73
4
 74
0
 40
0
 40
0
 40
0
 40
0
 40
1
 40
1
 40
1
 40
1
 10
114.495551
 20
114.501627
 30
0.0
 10
110.005481
 20
118.989677
 30
0.0
 10
103.802302
 20
120.895746
 30
0.0
 10
97.871603
 20
121.458986
 30
0.0
  0
SPLINE
  5
10a
100
AcDbEntity
  8
0
 62
3
100
AcDbSpline
 70
8
 71
3
 72
8
 73
4
 74
0
 40
0
 40
0
 40
0
 40
0
 40
1
 40
1
 40
1
 40
1
 10
97.871603
 20
121.458986
 30
0.0
 10
91.940923
 20
122.022226
 30
0.0
 10
72.877703
 20
122.472777
 30
0.0
 10
61.298474
 20
122.472777
 30
0.0
  0
SPLINE
  5
10b
100
AcDbEntity
  8
0
 62
3
100
AcDbSpline
 70
8
 71
3
 72
8
 73
4
 74
0
 40
0
 40
0
 40
0
 40
0
 40
1
 40
1
 40
1
 40
1
 10
61.298474
 20
122.472777
 30
0.0
 10
49.719250
 20
122.472777
 30
0.0
 10
30.656033
 20
122.022226
 30
0.0
 10
24.725346
 20
121.458986
 30
0.0
  0
SPLINE
  5
10c
100
AcDbEntity
  8
0
 62
3
100
AcDbSpline
 70
8
 71
3
 72
8
 73
4
 74
0
 40
0
 40
0
 40
0
 40
0
 40
1
 40
1
 40
1
 40
1
 10
24.725346
 20
121.458986
 30
0.0
 10
18.794660
 20
120.895746
 30
0.0
 10
12.591479
 20
118.989677
 30
0.0
 10
8.103437
 20
114.499598
 30
0.0
  0
SPLINE
  5
10d
100
AcDbEntity
  8
0
 62
3
100
AcDbSpline
 70
8
 71
3
 72
8
 73
4
 74
0
 40
0
 40
0
 40
0
 40
0
 40
1
 40
1
 40
1
 40
1
 10
8.103437
 20
114.499598
 30
0.0
 10
3.615392
 20
110.009527
 30
0.0
 10
1.709322
 20
103.806347
 30
0.0
 10
1.146082
 20
97.875656
 30
0.0
  0
SPLINE
  5
10e
100
AcDbEntity
  8
0
 62
3
100
AcDbSpline
 70
8
 71
3
 72
8
 73
4
 74
0
 40
0
 40
0
 40
0
 40
0
 40
1
 40
1
 40
1
 40
1
 10
1.146082
 20
97.875656
 30
0.0
 10
0.582842
 20
91.944972
 30
0.0
 10
0.132292
 20
72.881757
 30
0.0
 10
0.132292
 20
61.302528
 30
0.0
  0
SPLINE
  5
10f
100
AcDbEntity
  8
0
 62
3
100
AcDbSpline
 70
8
 71
3
 72
8
 73
4
 74
0
 40
0
 40
0
 40
0
 40
0
 40
1
 40
1
 40
1
 40
1
 10
0.132292
 20
61.302528
 30
0.0
 10
0.132292
 20
49.723298
 30
0.0
 10
0.582842
 20
30.660083
 30
0.0
 10
1.146082
 20
24.729399
 30
0.0
  0
LWPOLYLINE
  5
110
100
AcDbEntity
  8
0
 62
3
100
AcDbPolyline
 90
1
 70
1
 10
1.146082
 20
24.729399
 30
0.0
  0
ENDSEC
  0
SECTION
  2
OBJECTS
  0
DICTIONARY
  5
C
330
0
100
AcDbDictionary
  3
ACAD_GROUP
350
D
  3
ACAD_MLINESTYLE
350
17
  0
DICTIONARY
  5
D
330
C
100
AcDbDictionary
  0
DICTIONARY
  5
1A
330
C
100
AcDbDictionary
  0
DICTIONARY
  5
17
330
C
100
AcDbDictionary
  3
STANDARD
350
18
  0
DICTIONARY
  5
19
330
C
100
AcDbDictionary
  0
ENDSEC
  0
EOF
